HIERARCHY
ROOT SimulationBone
{
	OFFSET 0.000000 0.000000 0.000000
	CHANNELS 6 Xposition Yposition Zposition Zrotation Yrotation Xrotation 
	JOINT Hips
	{
		OFFSET 0.000000 0.000000 0.000000
		CHANNELS 6 Xposition Yposition Zposition Zrotation Yrotation Xrotation 
		JOINT LeftUpLeg
		{
			OFFSET 0.103455 1.857829 10.548506
			CHANNELS 3 Zrotation Yrotation Xrotation
			JOINT LeftLeg
			{
				OFFSET 43.499996 -0.000034 0.000000
				CHANNELS 3 Zrotation Yrotation Xrotation
				JOINT LeftFoot
				{
					OFFSET 42.372192 0.000015 -0.000006
					CHANNELS 3 Zrotation Yrotation Xrotation
					JOINT LeftToe
					{
						OFFSET 17.299999 -0.000000 -0.000002
						CHANNELS 3 Zrotation Yrotation Xrotation
						End Site
						{
							OFFSET 0.000000 0.000000 0.000000
						}
					}
				}
			}
		}
		JOINT RightUpLeg
		{
			OFFSET 0.103461 1.857828 -10.548504
			CHANNELS 3 Zrotation Yrotation Xrotation
			JOINT RightLeg
			{
				OFFSET 43.500038 -0.000027 0.000010
				CHANNELS 3 Zrotation Yrotation Xrotation
				JOINT RightFoot
				{
					OFFSET 42.372265 -0.000004 0.000015
					CHANNELS 3 Zrotation Yrotation Xrotation
					JOINT RightToe
					{
						OFFSET 17.299992 -0.000005 0.000008
						CHANNELS 3 Zrotation Yrotation Xrotation
						End Site
						{
							OFFSET 0.000000 0.000000 0.000000
						}
					}
				}
			}
		}
		JOINT Spine
		{
			OFFSET 6.901968 -2.603732 0.000000
			CHANNELS 3 Zrotation Yrotation Xrotation
			JOINT Spine1
			{
				OFFSET 12.588099 -0.000001 0.000001
				CHANNELS 3 Zrotation Yrotation Xrotation
				JOINT Spine2
				{
					OFFSET 12.343203 -0.000001 -0.000000
					CHANNELS 3 Zrotation Yrotation Xrotation
					JOINT Neck
					{
						OFFSET 25.832890 -0.000002 0.000001
						CHANNELS 3 Zrotation Yrotation Xrotation
						JOINT Head
						{
							OFFSET 11.766614 0.000006 0.000000
							CHANNELS 3 Zrotation Yrotation Xrotation
							End Site
							{
								OFFSET 0.000000 0.000000 0.000000
							}
						}
					}
					JOINT LeftShoulder
					{
						OFFSET 19.745895 -1.480368 6.000105
						CHANNELS 3 Zrotation Yrotation Xrotation
						JOINT LeftArm
						{
							OFFSET 11.284125 -0.000008 -0.000020
							CHANNELS 3 Zrotation Yrotation Xrotation
							JOINT LeftForeArm
							{
								OFFSET 33.000050 0.000002 0.000037
								CHANNELS 3 Zrotation Yrotation Xrotation
								JOINT LeftHand
								{
									OFFSET 25.200003 0.000015 -0.000001
									CHANNELS 3 Zrotation Yrotation Xrotation
									End Site
									{
										OFFSET 0.000000 0.000000 0.000000
									}
								}
							}
						}
					}
					JOINT RightShoulder
					{
						OFFSET 19.746092 -1.480371 -6.000073
						CHANNELS 3 Zrotation Yrotation Xrotation
						JOINT RightArm
						{
							OFFSET 11.284139 -0.000016 -0.000008
							CHANNELS 3 Zrotation Yrotation Xrotation
							JOINT RightForeArm
							{
								OFFSET 33.000092 0.000014 0.000002
								CHANNELS 3 Zrotation Yrotation Xrotation
								JOINT RightHand
								{
									OFFSET 25.199774 0.000137 0.000428
									CHANNELS 3 Zrotation Yrotation Xrotation
									End Site
									{
										OFFSET 0.000000 0.000000 0.000000
									}
								}
							}
						}
					}
				}
			}
		}
	}
}
MOTION
Frames: 14
Frame Time: 0.033333
-0.041874 0.000000 -45.938772 0.000000 138.538406 0.000000 -2.190886 92.905952 -2.683528 92.167145 -0.256474 177.945284 -179.207922 -15.746511 162.664616 -36.679991 0.237916 -2.320538 78.129878 -3.862866 -20.896699 21.454550 0.003092 -0.000000 170.973432 1.729397 -171.155757 -22.365046 3.445915 16.619240 77.722280 -9.999560 7.360471 21.454558 -0.003104 -0.000018 9.162415 2.221838 -1.402692 8.265984 4.537917 -2.645157 7.947170 4.522009 -2.672540 -3.219642 2.170873 -15.364420 -10.906754 3.812065 -15.839277 176.797985 -77.517606 1.833656 2.444832 58.688865 37.886639 -67.308297 -14.940760 2.377931 9.412888 -7.876406 23.376806 156.332757 74.624495 -22.868993 7.775381 -40.802065 -18.086631 -33.784356 19.813279 -1.644380 13.612751 8.685969 -16.248532 
0.709392 0.000000 -44.967804 0.000000 138.404687 0.000000 -1.859538 92.849693 -2.371672 92.410625 -0.111814 178.216308 -178.427627 -15.816604 163.863082 -39.257578 0.464354 -1.983808 77.774865 -4.060499 -20.408542 21.454546 0.003090 0.000000 170.838167 1.332900 -171.994217 -21.919959 3.466971 17.237210 77.234802 -10.443479 7.264005 21.454558 -0.003102 -0.000016 9.070319 2.139361 -1.467209 8.080448 4.375657 -2.783494 7.761749 4.358920 -2.809894 -3.762425 1.749103 -15.175596 -10.489036 3.902969 -15.750514 175.307979 -78.048018 3.338022 -0.007152 58.183615 35.339624 -67.228623 -15.074904 2.384003 8.641310 -7.583291 23.944627 154.630196 75.163308 -24.574104 8.383182 -41.083171 -19.275272 -34.301394 20.134651 -1.676948 11.744551 10.508468 -18.417125 
1.416288 0.000000 -43.815989 0.000000 138.296309 0.000000 -1.527851 92.724541 -2.034103 92.728361 0.066755 178.060848 -177.627798 -15.905695 165.182606 -41.597833 0.621933 -1.090016 77.366079 -4.776929 -20.308256 21.454545 0.003090 -0.000001 170.493693 1.194004 -172.126231 -21.959222 3.586494 17.185348 77.103458 -10.500920 6.898124 21.454560 -0.003117 -0.000019 9.019393 2.027728 -1.473909 7.980242 4.151976 -2.806364 7.661653 4.135099 -2.831391 -4.063823 1.384156 -14.714505 -9.999262 3.926531 -15.364287 174.034040 -78.332113 4.627953 -1.773683 57.940713 31.952404 -67.897148 -14.864297 2.396386 8.049517 -7.506738 24.209795 152.296717 75.474622 -26.932993 8.363302 -41.622425 -18.844565 -35.331626 20.152067 -1.702342 11.074289 11.601265 -17.857029 
2.084380 0.000000 -42.494965 0.000000 138.212249 0.000000 -1.202148 92.567001 -1.640929 93.089778 0.352138 177.975792 -176.974108 -16.181109 166.575815 -43.389180 0.829140 0.268978 77.112125 -5.816404 -20.239606 21.454560 0.003095 0.000000 170.092146 1.098905 -171.601318 -22.112553 3.633488 16.863220 76.806632 -10.393197 6.404379 21.454560 -0.003112 -0.000018 8.984989 1.908990 -1.483142 7.913282 3.914639 -2.833998 7.594803 3.897601 -2.857588 -4.313414 1.134125 -13.915640 -8.800000 3.853579 -14.540419 173.324001 -78.390894 5.349459 -3.480320 57.711048 27.943600 -69.092636 -14.482796 2.418520 7.977139 -7.388629 24.646505 151.632768 75.590626 -27.601698 7.410795 -42.291439 -17.327799 -36.904735 20.059622 -1.734846 11.139991 12.514191 -17.224935 
2.719238 0.000000 -41.016364 0.000000 138.151509 0.000000 -0.811625 92.398117 -1.190246 93.506554 0.733850 178.191140 -176.461188 -16.612506 167.928807 -44.310330 0.995849 1.320866 76.994346 -6.566076 -20.047336 21.454551 0.003093 0.000000 169.918523 0.992490 -170.880951 -22.002447 3.701861 16.608032 76.427460 -10.302611 6.023973 21.454557 -0.003106 -0.000018 8.933128 1.801228 -1.522735 7.810262 3.700812 -2.922036 7.491883 3.683247 -2.944319 -4.244363 1.288815 -12.477991 -7.255161 3.086977 -12.771650 173.477024 -78.164302 5.200091 -5.032539 57.358330 24.031710 -70.511970 -14.074231 2.448365 8.023740 -7.055083 24.694180 151.863669 75.505713 -27.372086 6.282862 -43.073389 -15.645544 -39.180462 20.039534 -1.792199 11.570180 13.178757 -17.931297 
3.326429 0.000000 -39.391821 0.000000 138.113103 0.000000 -0.369596 92.207230 -0.723923 94.006768 1.042548 178.589919 -175.954129 -17.081207 169.163350 -44.193619 0.923552 1.488470 77.000711 -6.678457 -20.012080 21.454555 0.003092 -0.000000 169.805169 0.955908 -170.268092 -21.861287 3.668000 16.562140 76.017881 -10.352893 5.668286 21.454557 -0.003113 -0.000018 8.878927 1.673482 -1.554031 7.703388 3.446399 -2.994660 7.385134 3.428404 -3.015405 -3.413333 1.973037 -10.122285 -6.591916 1.599236 -9.838994 173.538947 -77.837894 5.147210 -6.276248 57.090440 20.492384 -71.818599 -13.720720 2.477889 7.786324 -6.408402 24.623435 151.902547 75.294523 -27.346011 5.564918 -44.021621 -14.598940 -41.995012 20.004128 -1.867207 11.621246 14.193091 -19.018996 
3.911521 0.000000 -37.632972 0.000000 138.096066 0.000000 0.106332 91.974937 -0.283205 94.627337 1.247454 179.047332 -175.492995 -17.452301 169.757166 -43.229162 0.888981 1.176993 76.683709 -6.232749 -19.047016 21.454560 0.003094 0.000003 169.675054 1.042405 -170.238230 -21.906800 3.659296 16.856420 75.660341 -10.593681 5.503882 21.454560 -0.003103 -0.000019 8.855448 1.527326 -1.523345 7.660396 3.151851 -2.943451 7.342242 3.134159 -2.962426 -2.746163 2.428850 -6.979682 -5.711204 0.223542 -6.237108 174.057003 -77.575581 4.626769 -7.631983 57.058478 17.413029 -72.643624 -13.388494 2.489140 7.560329 -5.721109 23.863004 151.864216 75.194017 -27.391504 5.416643 -45.245745 -14.339414 -45.299099 19.854564 -1.954589 11.424481 15.409349 -19.654510 
4.480081 0.000000 -35.751451 0.000000 138.099446 0.000000 0.571102 91.719521 0.122660 95.313884 1.440167 179.655657 -175.356173 -17.720791 170.131761 -41.836463 0.867485 0.739343 75.514797 -5.622797 -17.365210 21.454565 0.003096 -0.000001 169.557069 1.182687 -170.327760 -21.948403 3.607700 17.333439 75.214562 -10.919024 5.516643 21.454560 -0.003108 -0.000015 8.873613 1.400011 -1.460030 7.701132 2.893807 -2.824657 7.383005 2.876832 -2.842063 -2.718926 2.847845 -3.393134 -4.100697 -1.197875 -2.206850 174.623021 -77.384131 4.055824 -8.699706 57.192654 15.216840 -73.283074 -13.076600 2.494185 7.205047 -5.363747 23.030935 151.181033 75.212923 -28.086330 5.813146 -46.632529 -14.393524 -48.973645 19.394160 -2.039779 10.892803 15.512884 -20.520289 
5.037678 0.000000 -33.758893 0.000000 138.122305 0.000000 1.033941 91.593750 0.466547 96.046578 1.363303 -179.657513 -175.487135 -17.577196 170.544127 -40.766326 0.953574 2.122874 73.615656 -6.227792 -15.044777 21.454553 0.003093 0.000000 169.667759 1.750105 -170.119207 -21.579581 3.536972 17.630451 74.347524 -11.111283 5.547828 21.454558 -0.003109 -0.000017 8.927318 1.233395 -1.370890 7.814085 2.556282 -2.656116 7.496017 2.540342 -2.671495 -2.525907 3.371171 0.161248 -2.871388 -2.764746 1.795928 175.074004 -77.094415 3.603789 -9.353524 57.169114 14.122851 -74.123699 -12.624162 2.495239 7.211355 -5.893903 22.512213 150.177582 75.275904 -29.104099 6.513751 -47.926368 -14.837780 -52.743335 18.464561 -2.103877 10.128080 15.106497 -22.091186 
5.589879 0.000000 -31.666933 0.000000 138.163715 0.000000 1.182754 91.130127 0.569575 96.650099 1.781364 -178.929486 -175.952148 -17.600008 171.237637 -40.973994 1.041066 2.891556 75.016063 -6.561660 -14.962376 21.454551 0.003091 0.000000 168.925427 2.117904 -169.818078 -22.143344 3.413040 17.908928 73.559129 -11.217764 5.788275 21.454560 -0.003109 -0.000019 9.009329 1.201846 -1.209447 7.982362 2.484043 -2.333735 7.664227 2.470042 -2.348687 -2.070011 3.703024 3.376000 -2.051766 -4.209995 5.341722 175.905033 -76.665930 2.767516 -9.845081 56.849823 14.231229 -74.784076 -12.167930 2.494601 7.136749 -7.080924 22.179795 149.395184 75.430505 -29.890305 7.117465 -48.827062 -16.060155 -56.084408 17.479463 -2.155251 8.947262 15.242228 -24.087579 
6.142253 0.000000 -29.487205 0.000000 138.222759 0.000000 1.224876 90.660439 0.574661 97.138558 2.108035 -178.387525 -176.020136 -17.188007 171.380880 -40.522826 1.099536 3.249849 77.918477 -6.220335 -14.314101 21.454555 0.003090 0.000001 167.976700 2.713804 -169.527713 -22.694026 3.270405 17.999487 72.527238 -11.195909 5.990858 21.454558 -0.003115 -0.000019 9.093343 1.161513 -0.997391 8.155664 2.390254 -1.910919 7.837452 2.378802 -1.925310 -1.752976 3.936764 6.032937 -0.891668 -5.760138 8.283921 176.996935 -76.272238 1.662432 -9.887090 56.668751 15.089952 -75.221338 -11.850976 2.493038 6.697574 -7.471854 23.507621 148.258313 75.535533 -31.040085 7.839476 -49.550123 -17.529505 -59.079456 16.815898 -2.220177 7.305622 14.582944 -27.122734 
6.700366 0.000000 -27.231344 0.000000 138.298530 0.000000 1.160049 90.119797 0.451213 97.520587 2.343019 -178.036464 -175.543484 -16.207399 171.390388 -39.081530 0.840525 2.658259 82.030189 -4.973329 -13.286438 21.454546 0.003090 0.000000 166.749452 3.539995 -169.462744 -23.306496 3.184558 18.080843 71.289348 -11.142873 6.273487 21.454560 -0.003111 -0.000017 9.174742 1.107175 -0.764069 8.323922 2.266295 -1.446836 8.005662 2.257657 -1.460496 -1.216087 4.079274 8.046850 0.025787 -7.398262 10.561161 177.347037 -75.834033 1.315204 -8.872249 56.603629 16.378520 -75.803516 -11.510552 2.491344 6.384780 -6.691629 25.941917 146.733391 75.599840 -32.586518 8.715586 -50.093075 -18.849504 -61.838409 16.070749 -2.274004 5.551850 14.094918 -30.073876 
7.269788 0.000000 -24.910985 0.000000 138.390126 0.000000 0.864353 89.368073 0.209109 97.818317 2.746697 -177.627610 -175.102404 -15.310895 171.380730 -37.619128 0.315686 1.829870 88.302605 -3.391981 -12.141290 21.454551 0.003091 -0.000001 165.041672 4.443411 -169.524995 -24.334378 3.207903 18.169242 69.932046 -11.049776 6.666196 21.454560 -0.003106 -0.000016 9.300565 1.094454 -0.579840 8.579424 2.228751 -1.077194 8.261114 2.222348 -1.090633 -0.809298 4.300283 9.591540 0.685601 -9.042825 12.397798 178.410019 -75.391075 0.238598 -7.400654 56.540596 17.908186 -76.707846 -10.971612 2.489080 6.159124 -6.400747 27.708407 145.892089 75.784596 -33.428626 8.992333 -50.574310 -19.268616 -64.226017 15.307523 -2.314655 3.573991 13.315204 -32.801738 
7.856085 0.000000 -22.537762 0.000000 138.496651 0.000000 0.531709 88.750076 -0.052082 98.086015 2.626770 -177.235513 -174.840535 -13.875791 170.744662 -35.799214 -0.015561 1.091671 93.491042 -2.141580 -10.913653 21.454551 0.003092 -0.000001 163.550259 5.916698 -169.775936 -24.809955 3.352270 18.259606 68.135290 -11.000660 6.904882 21.454560 -0.003111 -0.000019 9.489788 0.967238 -0.464954 8.960716 1.967466 -0.853768 8.642443 1.962419 -0.865624 -0.244813 4.246816 10.887406 0.064820 -10.114891 13.927313 179.532943 -74.820303 -0.898784 -5.850746 56.248787 19.333737 -77.633132 -10.363973 2.486812 5.672476 -6.282472 28.659081 145.671693 75.807102 -33.651010 9.056659 -51.042755 -18.352527 -66.815055 14.443740 -2.358315 2.506975 12.150388 -35.425227 
